<?xml version="1.0" encoding="UTF-8"?><svg xmlns="http://www.w3.org/2000/svg" xmlns:xlink="http://www.w3.org/1999/xlink" contentScriptType="text/ecmascript" zoomAndPan="magnify" contentStyleType="text/css" style="stroke-opacity: 1.0;" version="1.0" width="48" fill="none" preserveAspectRatio="xMidYMid meet" viewBox="0 0 48 48" height="48" opacity="1.0">
<path fill="#007BFF" fill-opacity="1.0" stroke-width="2.0" d="M15.0002 14.3848C19.1256 16.0002 24.0085 16.0002 24.0085 16.0002C24.0085 16.0002 28.8802 16.0002 33.0002 14.3848C37.502 19.6386 40.6566 26.5646 42.7299 32.3977C44.8289 38.3029 40.2008 44.0002 33.9336 44.0002H14.0199C7.76837 44.0002 3.14607 38.329 5.23448 32.4366C7.29812 26.614 10.455 19.6856 15.0002 14.3848Z" stroke-linejoin="round" stroke="#007BFF"/>
<path d="M18 28H30" stroke-width="2.0" stroke-linejoin="round" stroke-linecap="round" stroke="white"/>
<path d="M18 34H30" stroke-width="2.0" stroke-linejoin="round" stroke-linecap="round" stroke="white"/>
<path d="M24.0088 28V38" stroke-width="2.0" stroke-linejoin="round" stroke-linecap="round" stroke="white"/>
<path d="M30 22L24 28L18 22" stroke-width="2.0" stroke-linejoin="round" stroke-linecap="round" stroke="white"/>
<path stroke-linecap="round" fill-rule="evenodd" stroke-linejoin="round" d="M24 16C31.1797 16 37 13.3137 37 10C37 6.68629 31.1797 4 24 4C16.8203 4 11 6.68629 11 10C11 13.3137 16.8203 16 24 16Z" stroke="#007BFF" clip-rule="evenodd" stroke-width="2.0"/>
</svg>