<?xml version="1.0" encoding="UTF-8"?><svg xmlns="http://www.w3.org/2000/svg" xmlns:xlink="http://www.w3.org/1999/xlink" contentScriptType="text/ecmascript" zoomAndPan="magnify" contentStyleType="text/css" style="stroke-opacity: 1.0;" version="1.0" width="48" fill="none" preserveAspectRatio="xMidYMid meet" viewBox="0 0 48 48" height="48" opacity="1.0">
<rect x="8" y="4" fill-opacity="1.0" fill="#007BFF" width="32" stroke-linejoin="round" rx="2" height="40" stroke="#007BFF" stroke-width="2.0"/>
<path d="M21 14H33" stroke-width="2.0" stroke-linejoin="round" stroke-linecap="round" stroke="white"/>
<path d="M21 24H33" stroke-width="2.0" stroke-linejoin="round" stroke-linecap="round" stroke="white"/>
<path d="M21 34H33" stroke-width="2.0" stroke-linejoin="round" stroke-linecap="round" stroke="white"/>
<path fill="white" clip-rule="evenodd" fill-opacity="1.0" d="M15 16C16.1046 16 17 15.1046 17 14C17 12.8954 16.1046 12 15 12C13.8954 12 13 12.8954 13 14C13 15.1046 13.8954 16 15 16Z" fill-rule="evenodd"/>
<path fill="white" clip-rule="evenodd" fill-opacity="1.0" d="M15 26C16.1046 26 17 25.1046 17 24C17 22.8954 16.1046 22 15 22C13.8954 22 13 22.8954 13 24C13 25.1046 13.8954 26 15 26Z" fill-rule="evenodd"/>
<path fill="white" clip-rule="evenodd" fill-opacity="1.0" d="M15 36C16.1046 36 17 35.1046 17 34C17 32.8954 16.1046 32 15 32C13.8954 32 13 32.8954 13 34C13 35.1046 13.8954 36 15 36Z" fill-rule="evenodd"/>
</svg>